<?xml version="1.0" ?><svg viewBox="0 0 24 24" xmlns="http://www.w3.org/2000/svg"><defs><style>.a{fill:#00ADB5;}.a,.b,.c,.d,.e,.f,.g{stroke:#EEEEEE;stroke-linecap:round;stroke-linejoin:round;}.b{fill:#00ADB5;}.c{fill:#00ADB5;}.d{fill:#00ADB5;}.e{fill:#00ADB5;}.f{fill:#00ADB5;}.g{fill:none;}</style></defs><title/><circle class="a" cx="22" cy="8" r="1.5"/><circle class="b" cx="11" cy="5" r="1"/><circle class="c" cx="20" cy="15.5" r="1"/><circle class="d" cx="1.5" cy="16.5" r="1"/><circle class="e" cx="8.5" cy="13" r="1"/><circle class="f" cx="11.5" cy="19.5" r="1.5"/><line class="g" x1="11" x2="11.626" y1="6" y2="18.008"/><line class="g" x1="9.487" x2="20.561" y1="12.969" y2="8.417"/><line class="g" x1="2.312" x2="7.769" y1="15.918" y2="13.676"/><line class="g" x1="12" x2="20.561" y1="5" y2="7.812"/><line class="g" x1="21.729" x2="20.59" y1="9.5" y2="14.695"/><line class="g" x1="10.139" x2="1.762" y1="5.643" y2="15.48"/><line class="g" x1="2.383" x2="10.105" y1="16.964" y2="18.945"/><line class="g" x1="13" x2="19.235" y1="18.945" y2="16.139"/><line class="g" x1="11.803" x2="19.235" y1="5.591" y2="14.861"/><line class="g" x1="10.566" x2="8.943" y1="5.918" y2="12.105"/><line class="g" x1="8.951" x2="10.921" y1="13.888" y2="18.115"/><line class="g" x1="12.486" x2="20.961" y1="18.372" y2="9.082"/></svg>